<svg xmlns="http://www.w3.org/2000/svg" viewBox="0 0 100 100" role="img" aria-labelledby="c1i-title">
  <title id="c1i-title">TexAI Icon</title>
  <defs>
    <linearGradient id="c1i-grad" x1="0%" y1="0%" x2="100%" y2="100%">
      <stop offset="0%" style="stop-color:#4F46E5" />
      <stop offset="100%" style="stop-color:#0EA5E9" />
    </linearGradient>
  </defs>

  <!-- Document shape -->
  <path d="M18,4 L66,4 L82,20 L82,90 Q82,96 76,96 L18,96 Q12,96 12,90 L12,10 Q12,4 18,4 Z" fill="url(#c1i-grad)"/>
  <path d="M66,4 L66,20 L82,20 Z" fill="#818CF8" opacity="0.6"/>

  <!-- Text lines -->
  <rect x="26" y="32" width="34" height="4" rx="2" fill="#FFFFFF" opacity="0.9"/>
  <rect x="26" y="42" width="44" height="3" rx="1.5" fill="#FFFFFF" opacity="0.5"/>
  <rect x="26" y="49" width="38" height="3" rx="1.5" fill="#FFFFFF" opacity="0.5"/>

  <!-- Integral symbol -->
  <text x="28" y="80" font-family="'Times New Roman', Georgia, serif" font-size="30" font-style="italic" fill="#FFFFFF" opacity="0.85">&#x222B;</text>

  <!-- Neural nodes -->
  <g opacity="0.95">
    <circle cx="66" cy="60" r="5" fill="#34D399"/>
    <circle cx="80" cy="48" r="4" fill="#34D399"/>
    <circle cx="80" cy="72" r="4" fill="#34D399"/>
    <circle cx="92" cy="58" r="5" fill="#34D399"/>
    <line x1="66" y1="60" x2="80" y2="48" stroke="#34D399" stroke-width="2" opacity="0.6"/>
    <line x1="66" y1="60" x2="80" y2="72" stroke="#34D399" stroke-width="2" opacity="0.6"/>
    <line x1="80" y1="48" x2="92" y2="58" stroke="#34D399" stroke-width="2" opacity="0.6"/>
    <line x1="80" y1="72" x2="92" y2="58" stroke="#34D399" stroke-width="2" opacity="0.6"/>
  </g>
</svg>